<svg width="150" height="150" viewBox="0 0 150 150" fill="none" xmlns="http://www.w3.org/2000/svg">
<path d="M68.371 2.73837C72.0263 -0.912791 77.9927 -0.912791 81.629 2.73837L143.371 64.5432C147.026 68.1943 150 75.4021 150 80.5667V136.886L149.997 137.108C149.868 142.162 145.696 146.25 140.625 146.25H9.375C4.22349 146.25 1.50296e-05 142.012 0 136.867V80.5478C7.52069e-05 75.3832 2.99271 68.1754 6.62903 64.5243L68.371 2.73837Z" fill="#F2F4F9"/>
<path d="M68.371 2.73837C72.0263 -0.912791 77.9927 -0.912791 81.629 2.73837L143.371 64.5432C147.026 68.1943 150 75.4021 150 80.5667V136.886L149.997 137.108C149.868 142.162 145.696 146.25 140.625 146.25H9.375C4.22349 146.25 1.50296e-05 142.012 0 136.867V80.5478C7.52069e-05 75.3832 2.99271 68.1754 6.62903 64.5243L68.371 2.73837ZM22.5 75.0003C19.7386 75.0003 17.5 77.2389 17.5 80.0003V128.75H27.5V80.0003C27.5 77.2389 25.2614 75.0003 22.5 75.0003ZM42.5 75.0003C39.7386 75.0003 37.5 77.2389 37.5 80.0003V128.75H47.5V80.0003C47.5 77.2389 45.2614 75.0003 42.5 75.0003ZM62.5 75.0003C59.7386 75.0003 57.5 77.2389 57.5 80.0003V128.75H67.5V80.0003C67.5 77.2389 65.2614 75.0003 62.5 75.0003ZM98.9954 75.2671C96.3753 74.395 93.5442 75.8122 92.6721 78.4323L75.9241 128.75H86.4636L102.16 81.5903C103.032 78.9703 101.615 76.1393 98.9954 75.2671ZM117.943 78.4323C117.07 75.8123 114.239 74.3951 111.619 75.2671C108.999 76.1392 107.582 78.9702 108.454 81.5903L124.151 128.75H134.69L117.943 78.4323Z" fill="#18BCF2"/>
</svg>
