<svg xmlns="http://www.w3.org/2000/svg" viewBox="-2.5 5 150 150"><defs><style>.b{mix-blend-mode:multiply;opacity:.07}.d{fill:#fffedb}.f{fill:#d3562c}</style></defs><g style="isolation:isolate"><g id="a"><path d="M75 9v144l61-35V44z" style="fill:#eb743b"/><path d="M70 9 9 44v74l61 35V69l-1-1v-5l1-1V50h-1V29l1-1z" style="fill:#ba478f"/><path d="M69 62 43 78V66l26-16V27L37 46v1h-1v53q-5-1-8 2-8 6-4 13 4 5 13 0l6-6V85l26-17z" class="b"/><path d="M70 65 43 81V69l27-16V30L37 49l-1 1v52l-8 2q-8 7-4 13t13 1q4-3 6-7V88l27-16z" style="fill:#9d356d"/><path d="M70 62 43 78V66l27-16V27L37 46v1h-1v53q-5-1-8 2-8 6-4 13 4 5 13 0l6-6V85l27-16z" class="d"/><g class="b"><path d="M92 100h3v2l-1 1h-1l-1-1zm12 23-2-1a2 2 0 0 1 2-3l2 2zm-9-59h2a2 2 0 0 1-2 4q-2-2-1-3m6-20h-3a2 2 0 0 1 1-4l2 1 1 1zm18 10a2 2 0 0 1 4 1v1q-2 2-3 1-2-1-1-3m0 24a2 2 0 0 1 4 0v2l-3 1v-1q-2 0-1-2m0 26a2 2 0 0 1 4 1v1l-3 1q-2-1-1-3"/><path d="M108 115a6 6 0 0 0-11 4l-5 2-3-1-4-2 9-13q3 0 5-3a6 6 0 0 0-5-9 6 6 0 0 0-4 11q-6 13-13 15l-3 1v4l5-2q7-1 8 1l4 2h1l7-2 4 2 4-2a6 6 0 0 0 1-8M92 98l3-1v3l-1 1h-1l-1-2zm12 22-2-1a2 2 0 0 1 2-4 2 2 0 0 1 2 3zm1-81a6 6 0 0 0-11-2v7q-6 5-9 4l-10-2v4l8 2q6 2 9 7a6 6 0 0 0 10 7q3-5-2-9h-5q-2-4-5-6l8-5h1q5 0 6-3zM95 61h2a2 2 0 0 1-2 3q-2-1-1-3m6-20-3 1a2 2 0 0 1 1-4h2l1 2z"/><path d="m114 80 2 2 1 1a6 6 0 1 0 3-12h-1V60h1q3 0 5-3l1-4a6 6 0 0 0-6-5q-3 0-5 3-2 4 1 7-2 8 0 15h-1l-1 3-7 2q-2 3-10 3H87l-3-2q-2-4-10-5v4q5 0 7 3 2 4 6 4h5l8 1c3 0 12 9 15 14q-2 5 1 9h1a6 6 0 1 0 1-11q-4-8-13-14l4-2zm4-27a2 2 0 0 1 4 0v2l-3 1q-2-2-1-3m0 23a2 2 0 0 1 4 1v1q-2 2-3 1-2-1-1-3m0 27a2 2 0 0 1 4 0v2h-3z"/></g><path d="M108 118a6 6 0 0 0-11 4l-5 2-3-1-4-2 9-13q3 0 5-3a6 6 0 0 0-5-9 6 6 0 0 0-4 11q-6 13-13 15l-3 1v4l5-2q7-1 8 1l4 2h1l7-2 4 2 4-2a6 6 0 0 0 1-8m-16-17 3-1v3l-1 1h-1l-1-2zm12 22-2-1a2 2 0 0 1 2-4 2 2 0 0 1 2 3zm1-81a6 6 0 0 0-11-2v7q-6 5-9 4-6-3-10-2v4l8 2q6 2 9 7a6 6 0 0 0 10 7q3-5-2-9h-5q-2-4-5-6l8-5h1q5 0 6-3zM95 64h2a2 2 0 0 1-2 3q-2-1-1-3m6-20-3 1a2 2 0 0 1 1-4h2l1 2z" class="f"/><path d="m114 83 2 2 1 1a6 6 0 1 0 3-12h-1V63h1q3 0 5-3l1-4a6 6 0 0 0-6-5q-3 0-5 3-2 4 1 7-2 8 0 15h-1l-1 3-7 2q-2 3-10 3H87l-3-2q-2-4-10-5v4q5 0 7 3t6 4h5l8 1c3 0 12 9 15 14q-2 5 1 9h1a6 6 0 1 0 1-11q-4-8-13-14l4-2zm4-27a2 2 0 0 1 4 0v2l-3 1q-2-2-1-3m0 23a2 2 0 0 1 4 1v1q-2 2-3 1-2-1-1-3m0 27a2 2 0 0 1 4 0v2h-3z" class="f"/><path d="M108 115a6 6 0 0 0-11 4l-5 2-3-1-4-2 9-13q3 0 5-3a6 6 0 0 0-5-9 6 6 0 0 0-4 11q-6 13-13 15l-3 1v4l5-2q7-1 8 1l4 2h1l7-2 4 2 4-2a6 6 0 0 0 1-8M92 98l3-1v3l-1 1h-1l-1-2zm12 22-2-1a2 2 0 0 1 2-4 2 2 0 0 1 2 3zm1-81a6 6 0 0 0-11-2v7q-6 5-9 4l-10-2v4l8 2q6 2 9 7a6 6 0 0 0 10 7q3-5-2-9h-5q-2-4-5-6l8-5h1q5 0 6-3zM95 61h2a2 2 0 0 1-2 3q-2-1-1-3m6-20-3 1a2 2 0 0 1 1-4h2l1 2z" class="d"/><path d="m114 80 2 2 1 1a6 6 0 1 0 3-12h-1V60h1q3 0 5-3l1-4a6 6 0 0 0-6-5q-3 0-5 3-2 4 1 7-2 8 0 15h-1l-1 3-7 2q-2 3-10 3H87l-3-2q-2-4-10-5v4q5 0 7 3 2 4 6 4h5l8 1c3 0 12 9 15 14q-2 5 1 9h1a6 6 0 1 0 1-11q-4-8-13-14l4-2zm4-27a2 2 0 0 1 4 0v2l-3 1q-2-2-1-3m0 23a2 2 0 0 1 4 1v1q-2 2-3 1-2-1-1-3m0 27a2 2 0 0 1 4 0v2h-3z" class="d"/></g></g></svg>
