<?xml version="1.0" encoding="UTF-8" standalone="no"?>
<!-- Created with Inkscape (http://www.inkscape.org/) -->

<svg
   width="210"
   height="210"
   viewBox="0 0 55.5625 55.5625"
   version="1.1"
   id="svg1"
   xml:space="preserve"
   inkscape:version="1.3.2 (091e20e, 2023-11-25, custom)"
   sodipodi:docname="sverigesradio-icon.svg"
   xmlns:inkscape="http://www.inkscape.org/namespaces/inkscape"
   xmlns:sodipodi="http://sodipodi.sourceforge.net/DTD/sodipodi-0.dtd"
   xmlns="http://www.w3.org/2000/svg"
   xmlns:svg="http://www.w3.org/2000/svg"><sodipodi:namedview
     id="namedview1"
     pagecolor="#ffffff"
     bordercolor="#000000"
     borderopacity="0.25"
     inkscape:showpageshadow="2"
     inkscape:pageopacity="0.0"
     inkscape:pagecheckerboard="0"
     inkscape:deskcolor="#d1d1d1"
     inkscape:document-units="mm"
     inkscape:zoom="1.205"
     inkscape:cx="271.78423"
     inkscape:cy="153.11203"
     inkscape:window-width="1920"
     inkscape:window-height="1129"
     inkscape:window-x="-8"
     inkscape:window-y="-8"
     inkscape:window-maximized="1"
     inkscape:current-layer="g4" /><defs
     id="defs1"><symbol
       preserveAspectRatio="xMinYMin"
       fill="currentColor"
       id="sprite-sverigesradio"
       viewBox="0 0 310 52"><path
         d="M 46.59,9.85 36.8,39.23 27.02,9.85 h -2.38 l 10.4,31.22 h 3.52 L 48.95,9.85 Z m 82.27,23.3 a 9.29,9.29 0 0 1 -8.76,6.17 h -0.78 a 9.29,9.29 0 0 1 -8.76,-6.17 c -0.18,-0.53 -0.76,-2.14 -0.76,-7.69 0,-5 0.43,-6.76 0.76,-7.67 a 9.3,9.3 0 0 1 8.76,-6.18 h 0.78 a 9.3,9.3 0 0 1 8.76,6.18 c 0.18,0.53 0.76,2.14 0.76,7.67 0,3.73 -0.25,6.25 -0.76,7.69 m 0.76,-23.31 v 4.52 a 11.63,11.63 0 0 0 -9.5,-5 h -0.77 A 11.54,11.54 0 0 0 108.46,17 c -0.42,1.16 -0.89,3.17 -0.89,8.42 0,5.25 0.5,7.37 0.89,8.44 a 11.53,11.53 0 0 0 10.89,7.67 h 0.77 a 11.55,11.55 0 0 0 9.5,-5 22.48,22.48 0 0 1 -0.74,6.32 9.3,9.3 0 0 1 -8.77,6.16 h -0.77 a 10.56,10.56 0 0 1 -8.5,-4 h -2.62 c 1.87,3.76 6.27,6.3 11.13,6.3 h 0.77 A 11.54,11.54 0 0 0 131,43.65 c 0.38,-1.07 0.88,-3.11 0.88,-8.44 V 9.84 Z m 9.88,7.95 a 9.3,9.3 0 0 1 8.76,-6.17 H 149 a 9.3,9.3 0 0 1 8.76,6.17 16.76,16.76 0 0 1 0.72,5.26 h -19.71 a 17.81,17.81 0 0 1 0.71,-5.26 m 19,15.56 -0.05,0.15 c -1.19,3.38 -5.17,5.82 -9.45,5.82 h -0.78 a 9.28,9.28 0 0 1 -8.74,-6.17 c -0.18,-0.53 -0.76,-2.14 -0.76,-7.69 V 25.3 h 22.1 v -1.14 c -0.07,-4.36 -0.54,-6.15 -0.88,-7.12 A 11.55,11.55 0 0 0 149,9.36 h -0.77 A 11.57,11.57 0 0 0 137.34,17 c -0.41,1.16 -0.88,3.17 -0.88,8.42 0,5.25 0.5,7.37 0.88,8.44 a 11.53,11.53 0 0 0 10.89,7.67 H 149 c 5.29,0 10.05,-3 11.58,-7.32 l 0.32,-0.9 z M 53,17.79 a 9.29,9.29 0 0 1 8.76,-6.17 h 0.77 a 9.29,9.29 0 0 1 8.76,6.17 16.76,16.76 0 0 1 0.71,5.26 H 52.25 A 17.66,17.66 0 0 1 53,17.79 m 19,15.56 v 0.15 c -1.2,3.38 -5.17,5.82 -9.46,5.82 H 61.77 A 9.29,9.29 0 0 1 53,33.15 C 52.81,32.62 52.24,31.01 52.24,25.46 V 25.3 H 74.28 V 24.16 C 74.21,19.8 73.74,18 73.4,17 A 11.56,11.56 0 0 0 62.5,9.36 H 61.73 A 11.54,11.54 0 0 0 50.85,17 c -0.42,1.16 -0.89,3.17 -0.89,8.42 0,5.25 0.5,7.37 0.89,8.44 a 11.52,11.52 0 0 0 10.88,7.67 h 0.77 c 5.29,0 10,-3 11.58,-7.32 l 0.32,-0.9 z M 12,23.08 c -5.71,0 -8.61,-1.85 -8.61,-5.5 0,-2.54 0.83,-5.94 8,-5.94 h 0.91 c 6.58,0 7.82,2.84 8,5.28 h 2.26 C 22.35,13.33 20.3,9.39 12.31,9.39 H 11.4 c -8.5,0 -10.26,4.45 -10.26,8.19 0,2.91 1.41,7.77 10.86,7.77 8.33,0 9.45,3.64 9.45,7.21 0,4.5 -3,6.77 -8.84,6.77 h -1.5 c -5.86,0 -8.83,-2.28 -8.83,-6.77 H 0 c 0,5.81 3.94,9 11.09,9 h 1.5 c 7.15,0 11.09,-3.21 11.09,-9 0,-6.37 -3.83,-9.46 -11.7,-9.46 M 101.95,2.13 v 3.9 H 99.69 V 0.01 h 2.26 z m 0,11.61 V 9.83 H 99.7 v 31.23 h 2.25 z M 280.63,3.9 v 2.13 h -2.25 V 0.01 h 2.25 z m 0,10.82 V 9.83 h -2.25 v 31.23 h 2.25 z M 94.79,9.73 A 10.9,10.9 0 0 0 91.9,9.37 h -0.77 a 11.52,11.52 0 0 0 -9.5,5 V 9.84 h -2.25 v 31.23 h 2.25 V 24.92 c 0,-4.54 0.44,-6.25 0.76,-7.13 a 9.28,9.28 0 0 1 8.76,-6.17 h 0.76 a 9.16,9.16 0 0 1 2.89,0.47 V 9.73 Z m 202.75,1.88 a 9.3,9.3 0 0 0 -8.76,6.18 c -0.33,0.91 -0.76,2.7 -0.76,7.67 0,5.55 0.58,7.16 0.76,7.69 a 9.29,9.29 0 0 0 8.76,6.16 h 0.77 a 9.29,9.29 0 0 0 8.76,-6.16 26.4,26.4 0 0 0 0.76,-7.69 c 0,-5.53 -0.57,-7.14 -0.76,-7.67 a 9.3,9.3 0 0 0 -8.76,-6.18 z m 0.77,30 h -0.77 a 11.58,11.58 0 0 1 -10.89,-7.67 c -0.37,-1.07 -0.88,-3.12 -0.88,-8.44 0,-5.32 0.5,-7.25 0.89,-8.42 a 11.55,11.55 0 0 1 10.88,-7.67 h 0.77 A 11.57,11.57 0 0 1 309.2,17 c 0.41,1.17 0.88,3.18 0.88,8.42 0,5.24 -0.5,7.37 -0.88,8.44 a 11.56,11.56 0 0 1 -10.89,7.67 m -28.88,-8.39 a 9.29,9.29 0 0 1 -8.76,6.17 h -0.77 a 9.31,9.31 0 0 1 -8.76,-6.17 c -0.18,-0.53 -0.75,-2.14 -0.75,-7.69 0,-4.95 0.43,-6.75 0.75,-7.67 a 9.32,9.32 0 0 1 8.76,-6.17 h 0.77 a 9.3,9.3 0 0 1 8.76,6.17 c 0.19,0.53 0.76,2.14 0.76,7.67 0,3.73 -0.24,6.26 -0.76,7.69 m 0.77,7.93 h 2.25 V 0 h -2.25 v 14.37 a 11.57,11.57 0 0 0 -9.5,-5 h -0.77 A 11.53,11.53 0 0 0 249.05,17 c -0.42,1.17 -0.9,3.18 -0.9,8.42 0,5.24 0.5,7.37 0.9,8.44 a 11.52,11.52 0 0 0 10.88,7.67 h 0.77 a 11.57,11.57 0 0 0 9.5,-5 v 4.5 z M 241.29,25.42 c 0,3.73 -0.25,6.25 -0.77,7.7 a 9.28,9.28 0 0 1 -8.76,6.17 h -0.84 c -5.88,0 -8.87,-2.29 -8.87,-6.79 v -0.35 c 0,-3.57 1.15,-6.87 9.5,-6.87 h 9.76 v 0.13 z m 2.25,-7.21 c 0,-5.57 -3.84,-8.9 -10.29,-8.9 h -0.92 c -6.67,0 -10.61,2.74 -11,7.55 h 2.27 c 0.42,-4.35 4.89,-5.29 8.68,-5.29 h 0.92 c 3,0 8,0.85 8,6.65 V 23 h -9.75 c -8,0 -11.73,2.9 -11.73,9.14 v 0.36 c 0,5.83 3.95,9 11.12,9 h 0.91 a 11.63,11.63 0 0 0 9.46,-5 v 4.53 h 2.25 V 18.21 Z M 207.89,17.5 c 0,-7.92 -7.79,-7.45 -10.21,-7.92 h 11.24 c 3.23,0 8.4,2.13 8.4,7.92 0,5.79 -4.06,7.92 -7.28,7.92 h -5.28 c 0,0 3.13,0 3.13,-7.92 z m -42.6,23.56 h 13.47 L 165.29,27.02 Z M 179.5,9.6 192.31,24.91 V 9.6 Z m 24.69,15.83 h -11.45 l 13.08,15.63 h 12.22 z M 174.45,17.5 c 0,6 1.93,7.45 4.32,7.92 H 172 c -3.19,0 -7.2,-2.13 -7.2,-7.92 0,-5.79 4,-7.92 7.2,-7.92 h 6.76 c -2.4,0.46 -4.32,1.95 -4.32,7.92 z m 9.35,15.74 c 0,-5.88 -1.94,-7.35 -4.35,-7.81 h 6.82 c 3.22,0 7.27,2.11 7.27,7.82 0,5.71 -4,7.81 -7.27,7.82 h -6.82 c 2.41,-0.46 4.35,-1.93 4.35,-7.83 z"
         id="path1" /></symbol><symbol
       id="sprite-atom-channel-p1"
       viewBox="0 0 200 200"><path
         fill="#0167c6"
         style="stroke-width:0"
         d="M 200,0 H 0 v 200 h 200 z"
         id="path1-6" /><path
         fill="#ffffff"
         style="stroke-width:0"
         d="M 156.1,138.5 H 131.9 V 75.81 c 7.84,-0.38 18.79,-4.72 24.2,-16.51 z M 67.51,61.5 H 43.9 v 77 h 23.61 z m 50.43,22.92 h 0.02 c 0,-12.96 -7.29,-18.47 -14.08,-21.31 -2.91,-1.22 -6.71,-1.62 -11.54,-1.62 H 69.9 c 2.51,0.29 4.36,0.65 6.8,1.06 10.9,1.81 17.24,6.45 17.24,21.89 0,15.44 -1.74,19.35 -11.35,21.74 -1.94,0.47 -4.15,0.84 -6.71,1.17 h 15.76 c 3.43,0 6.36,0 9.12,-0.68 6.75,-1.67 17.18,-7 17.18,-22.24 z"
         id="path2-8" /></symbol><symbol
       id="sprite-atom-channel-p2"
       viewBox="0 0 200 200"><path
         fill="#ff5c00"
         style="stroke-width:0"
         d="M 200,0 H 0 v 200 h 200 z"
         id="path1-0" /><path
         fill="#ffffff"
         style="stroke-width:0"
         d="m 163.08,138.5 h -61.33 v -20.51 h 61.33 z M 60.53,61.5 H 36.92 v 77 h 23.61 z m 50.45,22.93 C 110.98,71.47 103.69,65.96 96.9,63.12 93.99,61.9 90.19,61.5 85.36,61.5 H 62.92 c 2.51,0.29 4.36,0.65 6.8,1.06 10.9,1.81 17.23,6.45 17.23,21.88 0,15.43 -1.74,19.35 -11.35,21.74 -1.94,0.47 -4.15,0.84 -6.71,1.17 h 15.76 c 3.43,0 6.35,0 9.12,-0.68 6.75,-1.67 17.18,-7 17.18,-22.24 h 0.02 z m 11.38,27.79 c -2.44,0.47 -4.29,0.86 -6.8,1.2 H 138 c 4.85,0 8.65,-0.45 11.54,-1.83 6.79,-3.2 14.08,-9.46 14.08,-24.13 0,-14.67 -7.29,-20.92 -14.08,-24.13 -2.91,-1.35 -6.71,-1.81 -11.54,-1.81 h -22.44 c 2.51,0.32 4.38,0.74 6.8,1.2 10.9,2.05 17.23,7.29 17.23,24.76 0,17.47 -6.34,22.69 -17.23,24.76 z"
         id="path2-4" /></symbol></defs><g
     inkscape:label="Layer 1"
     inkscape:groupmode="layer"
     id="layer1"
     transform="translate(-24.21191,-125.37124)"><g
       id="g4"><rect
         style="fill:#ffffff;stroke-width:9.30911;stroke-linecap:square;paint-order:stroke fill markers;fill-opacity:1"
         id="rect4"
         width="55.5625"
         height="55.562496"
         x="24.442455"
         y="125.37125" /><g
         id="use1"
         style="fill:#000000;fill-opacity:1"
         transform="matrix(1.0165052,0,0,1.0165052,-142.68507,127.21487)"><path
           d="m 207.89,17.5 c 0,-7.92 -7.79,-7.45 -10.21,-7.92 h 11.24 c 3.23,0 8.4,2.13 8.4,7.92 0,5.79 -4.06,7.92 -7.28,7.92 h -5.28 c 0,0 3.13,0 3.13,-7.92 z m -42.6,23.56 h 13.47 L 165.29,27.02 Z M 179.5,9.6 192.31,24.91 V 9.6 Z m 24.69,15.83 h -11.45 l 13.08,15.63 h 12.22 z M 174.45,17.5 c 0,6 1.93,7.45 4.32,7.92 H 172 c -3.19,0 -7.2,-2.13 -7.2,-7.92 0,-5.79 4,-7.92 7.2,-7.92 h 6.76 c -2.4,0.46 -4.32,1.95 -4.32,7.92 z m 9.35,15.74 c 0,-5.88 -1.94,-7.35 -4.35,-7.81 h 6.82 c 3.22,0 7.27,2.11 7.27,7.82 0,5.71 -4,7.81 -7.27,7.82 h -6.82 c 2.41,-0.46 4.35,-1.93 4.35,-7.83 z"
           id="path2"
           style="fill:#000000;fill-opacity:1"
           sodipodi:nodetypes="scssscscccccccccccccccssscccscssccs" /></g></g></g></svg>
