<?xml version="1.0" encoding="UTF-8"?>
<svg id="Layer_1" xmlns="http://www.w3.org/2000/svg" version="1.1" viewBox="0 0 25 25">
  <!-- Generator: Adobe Illustrator 30.2.1, SVG Export Plug-In . SVG Version: 2.1.1 Build 1)  -->
  <defs>
    <style>
      .st0 {
        fill: #fff;
      }
    </style>
  </defs>
  <path d="M21.25,0c2,.26,3.49,1.75,3.75,3.75v17.5c-.26,2-1.75,3.49-3.75,3.75H3.75c-2-.26-3.49-1.75-3.75-3.75V3.75C0,1.74,1.93.27,3.75,0h17.5ZM4.11,13.06v-3.19c0-.35-.38-.57-.67-.55s-.6.25-.6.59v3.13c0,.35.33.6.64.6.28,0,.63-.22.63-.57h0ZM9.46,13.07v-3.19c0-.35-.39-.57-.68-.54s-.59.26-.59.6v3.14c0,.34.34.56.63.57s.65-.21.65-.57h0ZM11.92,9.96c0-.35-.29-.64-.64-.64s-.64.29-.64.64.29.64.64.64.64-.29.64-.64ZM14.38,9.96c0-.35-.29-.64-.64-.64s-.64.29-.64.64.29.64.64.64.64-.29.64-.64ZM20.92,11.41c.38-.34.9-.22,1.26.11v-1.51c0-.27-.13-.5-.35-.6s-.5-.1-.69.07l-2.27,2.08-2.23-2.05c-.21-.19-.49-.22-.73-.1-.21.1-.36.33-.35.6v1.5c.39-.35.92-.41,1.29-.07l1.62,1.46c.2.18.62.19.82,0l1.65-1.49h-.02ZM11.93,15.11v-3.44c0-.34-.36-.56-.65-.56s-.63.24-.63.58v3.39c0,.35.33.59.62.59.32,0,.6-.2.66-.56ZM14.38,15.02v-3.32c0-.36-.33-.6-.65-.6s-.63.25-.63.61v3.32c0,.37.31.63.63.63.34,0,.65-.25.65-.64ZM16.84,14.98v-2.98c0-.37-.3-.64-.65-.64-.31,0-.64.24-.64.6v3.12c0,.37.37.61.68.59.36-.03.61-.3.61-.69ZM22.18,15.02v-3.06c0-.36-.34-.6-.66-.59s-.63.25-.63.61v3.06c0,.37.31.63.63.64.35,0,.66-.25.66-.65h0ZM6.15,13.46l2.25,2.06c.19.17.46.2.69.1.18-.08.38-.28.38-.53v-1.59c-.36.33-.88.44-1.25.11l-1.64-1.48c-.21-.19-.63-.2-.85-.01l-1.62,1.46c-.38.34-.92.28-1.28-.07v1.59c0,.26.21.47.4.54.25.09.49.05.68-.12l2.23-2.04v-.02Z"/>
  <g>
    <g>
      <path class="st0" d="M6.15,13.46l-2.23,2.04c-.19.17-.44.22-.68.12-.19-.07-.4-.28-.4-.54v-1.59c.36.35.9.41,1.28.07l1.62-1.46c.21-.19.64-.18.85.01l1.64,1.48c.36.33.89.22,1.24-.11v1.59c0,.25-.2.45-.38.53-.23.1-.5.07-.69-.1l-2.25-2.06v.02Z"/>
      <path class="st0" d="M4.11,13.06c0,.36-.35.57-.63.57-.32,0-.64-.24-.64-.6v-3.13c0-.34.31-.57.6-.59s.67.2.67.55v3.19h0Z"/>
      <path class="st0" d="M9.46,13.07c0,.36-.36.58-.65.57s-.63-.23-.63-.57v-3.14c0-.34.29-.57.59-.6s.68.19.68.54v3.19h0Z"/>
    </g>
    <g>
      <path class="st0" d="M20.92,11.41l-1.65,1.49c-.2.18-.62.17-.82,0l-1.62-1.46c-.37-.34-.9-.29-1.28.07v-1.5c-.01-.27.13-.5.35-.6.24-.12.53-.09.73.1l2.23,2.05,2.27-2.08c.19-.17.49-.17.69-.07s.36.33.36.6v1.51c-.37-.33-.89-.45-1.26-.11Z"/>
      <path class="st0" d="M16.84,14.98c0,.39-.25.67-.61.69-.31.02-.68-.22-.68-.59v-3.12c0-.36.33-.6.64-.6.34,0,.65.26.65.64,0,0,0,2.98,0,2.98Z"/>
      <path class="st0" d="M22.18,15.02c0,.4-.31.65-.66.65-.33,0-.63-.27-.63-.64v-3.06c0-.36.31-.61.63-.61s.65.23.66.59v3.06h0Z"/>
    </g>
    <g>
      <path class="st0" d="M14.38,15.02c0,.39-.31.65-.65.64s-.64-.26-.64-.63v-3.32c0-.36.32-.61.64-.61s.65.24.65.6c0,0,0,3.32,0,3.32Z"/>
      <circle class="st0" cx="13.74" cy="9.96" r=".64"/>
    </g>
    <g>
      <path class="st0" d="M11.93,15.11c-.06.36-.34.56-.66.56-.3,0-.62-.25-.62-.59v-3.39c0-.34.33-.58.63-.58s.65.22.65.56c0,0,0,3.44,0,3.44Z"/>
      <circle class="st0" cx="11.28" cy="9.96" r=".64"/>
    </g>
  </g>
</svg>
